<?xml version="1.0" encoding="utf-8"?>
<!-- Svg Vector Icons : http://www.onlinewebfonts.com/icon -->
<!DOCTYPE svg PUBLIC "-//W3C//DTD SVG 1.1//EN" "http://www.w3.org/Graphics/SVG/1.1/DTD/svg11.dtd">
<svg version="1.1" xmlns="http://www.w3.org/2000/svg" xmlns:xlink="http://www.w3.org/1999/xlink" x="0px" y="0px" viewBox="0 0 1000 1000" enable-background="new 0 0 1000 1000" xml:space="preserve">
<metadata> Svg Vector Icons : http://www.onlinewebfonts.com/icon </metadata>
<g><path d="M10,277.3h267.3V10H10V277.3z M54.5,54.5h178.2v178.2H54.5V54.5z"/><path d="M366.4,277.3h267.3V10H366.4V277.3z M410.9,54.5h178.2v178.2H410.9V54.5z"/><path d="M722.7,10v267.3H990V10H722.7z M945.5,232.7H767.3V54.5h178.2V232.7z"/><path d="M10,633.6h267.3V366.4H10V633.6z M54.5,410.9h178.2v178.2H54.5V410.9z"/><path d="M366.4,633.6h267.3V366.4H366.4V633.6z M410.9,410.9h178.2v178.2H410.9V410.9z"/><path d="M722.7,633.6H990V366.4H722.7V633.6z M767.3,410.9h178.2v178.2H767.3V410.9z"/><path d="M10,990h267.3V722.7H10V990z M54.5,767.3h178.2v178.2H54.5V767.3z"/><path d="M366.4,990h267.3V722.7H366.4V990z M410.9,767.3h178.2v178.2H410.9V767.3z"/><path d="M722.7,990H990V722.7H722.7V990z M767.3,767.3h178.2v178.2H767.3V767.3z"/></g>
</svg>