<?xml version="1.0" encoding="utf-8"?>
<!-- Svg Vector Icons : http://www.onlinewebfonts.com/icon -->
<!DOCTYPE svg PUBLIC "-//W3C//DTD SVG 1.1//EN" "http://www.w3.org/Graphics/SVG/1.1/DTD/svg11.dtd">
<svg version="1.1" xmlns="http://www.w3.org/2000/svg" xmlns:xlink="http://www.w3.org/1999/xlink" x="0px" y="0px" viewBox="0 0 1000 1000" enable-background="new 0 0 1000 1000" xml:space="preserve">
<metadata> Svg Vector Icons : http://www.onlinewebfonts.com/icon </metadata>
<g><path d="M978.3,927.8L548.7,498.2L978.3,68.7c14.1-14.1,14.1-35.2,0-49.3c-14.1-14.1-35.2-14.1-49.3,0L499.4,441.9L83.9,33.4c-14.1-14.1-35.2-14.1-49.3,0c-14.1,14.1-14.1,35.2,0,49.3l415.5,415.5L20.6,927.8c-14.1,14.1-14.1,35.2,0,49.3c7,7,14.1,14.1,21.1,14.1c7,0,21.1,0,28.2-7l429.6-436.6L929,977.1c7,7,14.1,7,28.2,7c14.1,0,21.1,0,28.2-7C992.4,963,992.4,941.9,978.3,927.8z"/></g>
</svg>