<?xml version="1.0" encoding="utf-8"?>
<!-- Svg Vector Icons : http://www.onlinewebfonts.com/icon -->
<!DOCTYPE svg PUBLIC "-//W3C//DTD SVG 1.1//EN" "http://www.w3.org/Graphics/SVG/1.1/DTD/svg11.dtd">
<svg version="1.1" xmlns="http://www.w3.org/2000/svg" xmlns:xlink="http://www.w3.org/1999/xlink" x="0px" y="0px" viewBox="0 0 1000 1000" enable-background="new 0 0 1000 1000" xml:space="preserve">
<metadata> Svg Vector Icons : http://www.onlinewebfonts.com/icon </metadata>
<g><g transform="translate(0.000000,511.000000) scale(0.100000,-0.100000)"><path d="M7032.8,2321.1c-66.4-66.4-145.5-421.3-145.5-656.2c0-418.7,125.1-709.8,446.8-1036.6l204.3-206.8l-286-17.9L6969,385.8l-211.9,109.8c-352.4,183.8-597.5,451.9-714.9,778.7c-61.3,171.1-76.6,566.8-28.1,730.2c23,81.7,20.4,104.7-20.4,153.2c-66.4,79.1-130.2,38.3-171.1-109.8c-43.4-171.1-40.8-602.5,7.7-765.9c102.1-337,347.2-661.3,653.6-863l155.7-102.1l-112.3-28.1c-61.3-15.3-173.6-45.9-245.1-66.4c-120-33.2-153.2-33.2-293.6,5.1c-554,140.4-993.2,592.3-1131.1,1159.1c-23,91.9-48.5,301.3-56.2,464.7c-15.3,316.6-38.3,370.2-132.8,339.6c-74-23-89.4-107.2-71.5-383c53.6-794,408.5-1373.6,1018.7-1657l171-81.7l-176.2-58.7c-150.7-51.1-206.8-58.7-375.3-46c-270.6,23-467.2,76.6-712.3,196.6c-474.9,232.3-707.2,587.2-745.5,1146.4c-17.9,242.5-17.9,245.1-86.8,252.8c-104.7,12.8-132.8-63.8-109.8-306.4c35.7-436.6,155.7-702.1,436.6-983c209.4-206.8,480-357.4,804.2-439.1c171.1-43.4,183.8-51.1,125.1-74.1c-35.7-15.3-160.8-68.9-280.8-120c-252.8-109.8-372.8-114.9-671.5-38.3c-689.4,173.6-1072.3,607.7-1108.1,1251c-7.7,132.8-25.5,257.9-40.8,275.7c-33.2,43.4-81.7,38.3-135.3-12.8c-35.7-38.3-40.9-76.6-28.1-275.7c10.2-125.1,35.8-293.6,58.7-370.2C2886.5-27.8,3289.9-405.7,3849-569l191.5-56.2l-97-40.8c-53.6-23-160.9-71.5-240-104.7c-176.2-79.1-360-81.7-625.5-15.3C2498.4-638,2151.2-260.1,2120.5,245.4c-5.1,114.9-15.3,234.9-23,263c-12.8,68.9-74,94.5-140.4,61.3c-40.9-23-48.5-56.2-48.5-204.3c0-388.1,120-689.4,380.4-944.7c183.8-181.3,451.9-331.9,686.8-385.5c71.5-17.9,132.8-38.3,132.8-45.9c0-10.2-117.4-61.3-260.4-114.9c-257.9-99.6-260.4-99.6-449.3-71.5c-467.2,74.1-868.1,329.4-1034,661.3c-97,194-127.7,311.5-143,556.6c-15.3,214.5-17.9,229.8-74,237.4c-97,15.3-132.8-38.3-132.8-196.6c2.6-385.5,145.5-740.4,405.9-998.3c181.3-178.7,347.2-280.8,610.2-372.7l166-56.2l-209.4-66.4c-242.5-76.6-319.1-81.7-526-28.1c-255.3,66.4-454.5,178.7-607.6,344.7C685.7-934.1,614.2-760.5,586.1-472c-12.8,153.2-28.1,214.5-61.3,234.9c-35.7,20.4-56.2,17.9-89.4-17.9c-38.3-35.8-46-81.7-40.8-234.9c15.3-459.6,247.6-819.6,671.5-1031.5c160.8-81.7,188.9-102.1,145.5-114.9c-127.7-30.6-671.5-91.9-824.7-91.9c-143,0-173.6-10.2-227.2-63.8c-102.1-99.6-68.9-265.5,66.4-319.1c143-61.3,873.2,25.5,1434.9,168.5c615.3,155.7,1212.7,377.9,2494.4,924.2C5687.3-364.8,6213.2-181,6938.3-53.3c314,56.1,891.1,56.1,1136.2,2.5c543.8-122.5,908.9-339.6,1320-783.8c191.5-209.4,219.6-229.8,306.4-229.8c104.7,0,199.1,89.4,199.1,191.5c0,143-451.9,612.8-817,847.7c-132.8,86.8-286,194-337,237.4c-125.1,107.2-283.4,344.7-352.3,531c-163.4,434-114.9,771.1,191.5,1271.5c40.8,68.9,43.4,86.8,15.3,122.5c-86.8,102.1-201.7,2.6-344.7-298.7c-112.3-240-153.2-416.2-148.1-668.9c2.6-240,84.2-528.5,206.8-725.1c43.4-71.5,76.6-130.2,71.5-130.2c-5.1,0-107.2,23-229.8,48.5c-171.1,38.3-257.9,74-393.2,163.4c-255.3,168.5-451.9,388.1-564.2,623c-84.2,181.3-94.5,222.1-102.1,459.6c-10.2,214.5,0,291.1,48.5,454.5c40.9,143,51.1,209.4,30.6,240C7140.1,2359.4,7081.3,2367.1,7032.8,2321.1z"/></g></g>
</svg>