<?xml version="1.0" encoding="utf-8"?>
<!-- Svg Vector Icons : http://www.onlinewebfonts.com/icon -->
<!DOCTYPE svg PUBLIC "-//W3C//DTD SVG 1.1//EN" "http://www.w3.org/Graphics/SVG/1.1/DTD/svg11.dtd">
<svg version="1.1" xmlns="http://www.w3.org/2000/svg" xmlns:xlink="http://www.w3.org/1999/xlink" x="0px" y="0px" viewBox="0 0 1000 1000" enable-background="new 0 0 1000 1000" xml:space="preserve">
<metadata> Svg Vector Icons : http://www.onlinewebfonts.com/icon </metadata>
<g><path d="M648.1,936.9H10v-59.5c11.6,9.2,26.4,14.8,42.4,14.8h551.7L648.1,936.9z M286.1,63.1c-34.2,0-62,27.8-62,62c0,21.3,10.7,40,27.1,51.2c7-19.5,18.5-37.4,33.6-52.6c15.1-15.1,33.1-26.5,52.6-33.6C326.2,73.8,307.4,63.1,286.1,63.1z M268.4,225.6c0,65.3,53,118.2,118.2,118.2c65.2,0,118.2-53,118.2-118.2c0-65.3-53-118.2-118.2-118.2c-13.9,0-27.2,2.4-39.5,6.7c-33.5,11.9-60.1,38.5-71.9,71.9C270.8,198.5,268.4,211.8,268.4,225.6z M204.3,388.6c-27.7,61.4-88,218.2-104.6,257.7h205.9c4.6-11.2,9.6-22.1,15.2-32.3c19.4-36.2,79.9-54.1,65.5-104.6c-0.1-0.4-0.3-0.8-0.4-1.3l54.2,51.4c4,3.8,8.9,6.9,14.1,8.9L602.4,625c5,1.9,10.2,2.8,15.2,2.8c17.2,0,33.4-10.5,39.8-27.5c8.4-22-2.6-46.6-24.7-55l-131-50.1c-6.1-2.4-11.7-5.9-16.5-10.4c0,0-115.4-109.5-115.5-109.6c-4.9-4.7-11.2-7.7-17.8-9.8c-1.6-0.5-3.2-1-4.9-1.5c-1.8-0.5-3.6-1-5.5-1.5c-28.8-7.7-60.8-14.2-90.5-11.6c-9.7,0.8-20.4,3.3-28.7,9C212.9,366.7,208.9,378.4,204.3,388.6z M52.4,866.3h562.5l53.9,54.6c5.1,5.2,11.2,9.2,17.7,11.9c6.4,2.6,13.3,4,20.3,4h229.7c29.9,0,53.9-24.5,53.5-54.3c-0.5-29.3-25-52.6-54.3-52.6H729.2L588.8,687.6c-10.9-11.1-17.3-15.7-36.8-15.7c-33.6,0-499.6,0.3-499.6,0.3c-23.4,0-42.4,19-42.4,42.4v98.3v11C10,847.3,29,866.3,52.4,866.3z M912.9,670.8c0-67.7-54.9-122.6-122.6-122.6c-67.7,0-122.6,54.9-122.6,122.6c0,67.7,54.9,122.6,122.6,122.6C857.9,793.4,912.9,738.6,912.9,670.8z"/></g>
</svg>