<?xml version="1.0" encoding="utf-8"?>
<!-- Svg Vector Icons : http://www.onlinewebfonts.com/icon -->
<!DOCTYPE svg PUBLIC "-//W3C//DTD SVG 1.1//EN" "http://www.w3.org/Graphics/SVG/1.1/DTD/svg11.dtd">
<svg version="1.1" xmlns="http://www.w3.org/2000/svg" xmlns:xlink="http://www.w3.org/1999/xlink" x="0px" y="0px" viewBox="0 0 1000 1000" enable-background="new 0 0 1000 1000" xml:space="preserve">
<metadata> Svg Vector Icons : http://www.onlinewebfonts.com/icon </metadata>
<g><path d="M39.2,17.8L39.2,17.8c10.4-10.4,27.2-10.4,37.6,0l404.4,404.4c10.4,10.4,27.2,10.4,37.6,0L923.2,17.8c10.4-10.4,27.2-10.4,37.6,0l0,0c10.4,10.4,10.4,27.2,0,37.6l-442,442c-10.4,10.4-27.2,10.4-37.6,0l-442-442C28.8,45,28.8,28.2,39.2,17.8z M39.2,502.6L39.2,502.6c10.4-10.4,27.2-10.4,37.6,0l404.4,404.4c10.4,10.4,27.2,10.4,37.6,0l404.4-404.4c10.4-10.4,27.2-10.4,37.6,0l0,0c10.4,10.4,10.4,27.2,0,37.6l-442,442c-10.4,10.4-27.2,10.4-37.6,0l-442-442C28.8,529.8,28.8,513,39.2,502.6z"/></g>
</svg>