<?xml version="1.0" encoding="utf-8"?>
<!-- Svg Vector Icons : http://www.onlinewebfonts.com/icon -->
<!DOCTYPE svg PUBLIC "-//W3C//DTD SVG 1.1//EN" "http://www.w3.org/Graphics/SVG/1.1/DTD/svg11.dtd">
<svg version="1.1" xmlns="http://www.w3.org/2000/svg" xmlns:xlink="http://www.w3.org/1999/xlink" x="0px" y="0px" viewBox="0 0 1000 1000" enable-background="new 0 0 1000 1000" xml:space="preserve">
<metadata> Svg Vector Icons : http://www.onlinewebfonts.com/icon </metadata>
<g><g transform="translate(0.000000,512.000000) scale(0.100000,-0.100000)"><path d="M1924.6,4964c-65.2-141.8-80.5-285.5-80.5-762.6c1.9-877.6,153.3-1793.6,469.5-2826.4c285.5-935.1,252.9-864.2,561.4-1222.5c80.5-93.9,141.8-180.1,138-191.6c-3.8-13.4-151.4-479.1-325.8-1038.6c-176.3-557.6-366-1165-425.4-1349l-105.4-333.4l-49.8,65.1c-184,237.6-431.1,358.3-779.9,375.6c-584.4,30.7-1013.7-310.4-1182.3-937C92.7-3448,85.1-3798.7,127.2-3952c86.2-302.8,295.1-555.7,572.9-695.6c628.5-314.3,1276.2-53.7,1561.7,628.5c28.7,69,172.5,525,320,1015.6c343,1136.3,710.9,2299.4,728.1,2299.4c19.2,0,448.4-1364.3,843.1-2682.7c86.2-289.3,185.9-590.2,222.3-666.8c304.7-664.9,923.6-904.4,1544.5-594c274,138,490.5,400.5,572.9,695.6c38.3,139.9,34.5,503.9-9.6,666.8c-109.2,410.1-306.6,687.9-599.8,843.1c-456.1,239.5-1076.9,132.2-1350.9-231.9c-42.2-55.6-65.2-72.8-74.7-57.5c-7.7,13.4-199.3,615.1-425.4,1337.5c-228,722.4-417.7,1326-425.4,1341.3c-5.7,19.2,55.6,107.3,170.5,243.4c97.7,116.9,197.4,239.5,220.4,272.1c44.1,61.3,272.1,766.5,404.3,1245.5c153.3,553.8,268.3,1147.8,339.2,1726.5c47.9,400.5,47.9,1180.4,0,1379.7c-36.4,155.2-72.8,220.4-113.1,205c-15.3-5.8-298.9-875.7-666.8-2052.2C3608.9,1844.5,3315.7,924.7,3310,924.7c-5.7,0-298.9,921.7-651.5,2046.5c-475.2,1511.9-651.5,2046.5-672.6,2050.3C1966.7,5025.4,1943.8,5002.4,1924.6,4964z M1476.2-2706.5c233.8-61.3,381.3-178.2,477.1-385.1c193.5-412-36.4-1042.4-454.1-1245.5C1025.9-4567.1,474-4180,474-3618.6c0,325.8,187.8,705.2,413.9,837.4C1064.2-2677.7,1267.3-2650.9,1476.2-2706.5z M5674.6-2752.5c207-101.6,358.3-314.2,433.1-607.4c111.1-431.1-38.3-791.4-406.2-979.2c-90.1-47.9-122.6-53.6-283.6-53.6c-162.9,0-193.5,5.7-297,55.6c-419.6,205-647.7,833.5-454.1,1245.5c130.3,277.9,383.2,419.6,726.2,408.1C5521.3-2689.2,5569.2-2700.7,5674.6-2752.5z"/><path d="M7190.3,4826.1c-63.2-63.2-63.2-151.4,0-212.7l46-47.9h835.4c808.6,0,835.4-1.9,871.9-38.3c24.9-24.9,38.3-63.2,38.3-115c0-51.7-13.4-90.1-38.3-115c-36.4-36.4-63.2-38.3-871.9-38.3h-835.4l-46-47.9c-30.7-28.7-47.9-69-47.9-105.4s17.3-76.7,47.9-105.4l46-47.9h835.4c808.6,0,835.4-1.9,871.9-38.3c24.9-24.9,38.3-63.2,38.3-115c0-51.7-13.4-90.1-38.3-115c-36.4-36.4-63.2-38.3-871.9-38.3h-835.4l-46-47.9c-63.2-61.3-63.2-149.5,0-210.8l46-47.9h835.4c808.6,0,835.4-1.9,871.9-38.3c51.7-51.7,51.7-178.2,0-229.9c-36.4-36.4-63.2-38.3-871.9-38.3h-835.4l-46-47.9c-63.2-61.3-63.2-149.5,0-210.8l46-47.9h835.4c808.6,0,835.4-1.9,871.9-38.3c24.9-24.9,38.3-63.2,38.3-115s-13.4-90.1-38.3-115c-36.4-36.4-63.2-38.3-871.9-38.3h-835.4l-46-47.9c-30.7-28.7-47.9-69-47.9-105.4s17.3-76.6,47.9-105.4l46-47.9h835.4c808.6,0,835.4-1.9,871.9-38.3c24.9-24.9,38.3-63.2,38.3-115c0-51.7-13.4-90.1-38.3-115c-36.4-36.4-63.2-38.3-871.9-38.3h-835.4l-46-47.9c-63.2-61.3-63.2-149.5,0-210.8l46-47.9h835.4c808.6,0,835.4-1.9,871.9-38.3c24.9-24.9,38.3-63.2,38.3-115s-13.4-90.1-38.3-115c-36.4-36.4-63.2-38.3-871.9-38.3h-835.4l-46-47.9c-30.7-28.7-47.9-69-47.9-105.4s17.3-76.6,47.9-105.4l46-47.9h835.4c808.6,0,835.4-1.9,871.9-38.3c24.9-24.9,38.3-63.2,38.3-115c0-51.7-13.4-90.1-38.3-115c-36.4-36.4-63.2-38.3-871.9-38.3h-835.4l-46-47.9c-30.7-28.7-47.9-69-47.9-105.4s17.3-76.6,47.9-105.4l46-47.9h835.4c808.6,0,835.4-1.9,871.9-38.3c51.7-51.7,51.7-178.2,0-229.9c-36.4-36.4-63.2-38.3-871.9-38.3h-835.4l-46-47.9c-63.2-61.3-63.2-149.5,0-210.8l46-47.9h835.4c808.6,0,835.4-1.9,871.9-38.3c24.9-24.9,38.3-63.2,38.3-115c0-51.7-13.4-90.1-38.3-115c-36.4-36.4-63.2-38.3-871.9-38.3h-835.4l-46-47.9c-30.7-28.7-47.9-69-47.9-105.4c0-36.4,17.3-76.7,47.9-105.4l46-47.9h835.4c808.6,0,835.4-1.9,871.9-38.3c51.7-51.7,51.7-178.2,0-229.9c-36.4-36.4-63.2-38.3-871.9-38.3h-835.4l-46-47.9c-63.2-61.3-63.2-149.5,0-210.8l46-47.9h835.4c808.6,0,835.4-1.9,871.9-38.3c51.7-51.7,51.7-178.2,0-229.9c-36.4-36.4-63.2-38.3-871.9-38.3h-835.4l-46-47.9c-57.5-55.6-61.3-141.8-11.5-203.1l36.4-46l850.8-5.7c835.5-3.8,848.9-3.8,883.4-44.1c46-55.6,42.2-180.1-5.7-228c-36.4-36.4-63.2-38.3-871.9-38.3h-835.4l-46-47.9c-63.2-61.3-63.2-149.5,0-210.8l46-47.9h843.1h843.1l28.7-42.2c44.1-61.3,38.3-180.1-7.7-226.1c-36.4-36.4-63.2-38.3-871.9-38.3h-835.4l-46-47.9c-63.2-61.3-63.2-149.5,0-210.8l46-47.9h835.4c808.6,0,835.4-1.9,871.9-38.3c51.7-51.7,51.7-178.2,0-229.9c-36.4-36.4-63.2-38.3-871.9-38.3h-835.4l-46-47.9c-57.5-55.6-61.3-141.8-11.5-203.1l36.4-46l850.8-5.7c835.5-3.8,848.9-3.8,883.4-44.1c46-55.6,42.2-180.1-5.7-228c-36.4-36.4-63.2-38.3-871.9-38.3h-835.4l-46-47.9c-63.2-61.3-63.2-149.5,0-212.7l47.9-46l1232.1,3.8l1234,5.7l67.1,51.7c143.7,109.2,130.3-333.4,126.5,4715.7l-5.7,4533.7l-40.2,51.7c-21.1,28.7-63.3,70.9-92,92c-51.7,40.2-74.7,40.2-1287.7,46l-1234,3.8L7190.3,4826.1z"/></g></g>
</svg>