<?xml version="1.0" encoding="utf-8"?>
<!-- Svg Vector Icons : http://www.onlinewebfonts.com/icon -->
<!DOCTYPE svg PUBLIC "-//W3C//DTD SVG 1.1//EN" "http://www.w3.org/Graphics/SVG/1.1/DTD/svg11.dtd">
<svg version="1.1" xmlns="http://www.w3.org/2000/svg" xmlns:xlink="http://www.w3.org/1999/xlink" x="0px" y="0px" viewBox="0 0 1000 1000" enable-background="new 0 0 1000 1000" xml:space="preserve">
<metadata> Svg Vector Icons : http://www.onlinewebfonts.com/icon </metadata>
<g><g transform="translate(0.000000,511.000000) scale(0.100000,-0.100000)"><path d="M3998.1,4988.6c-991-121.9-2059-644.6-2710-1318.1c-285.4-301.5-340-567.7-182.8-888.4c102.6-205.3,275.8-340,506.7-391.3c263-57.7,465,16,753.7,272.6c542,487.5,1135.3,763.3,1831.3,853.1c1003.8,131.5,2110.3-272.6,2793.4-1016.7c513.1-561.3,859.5-1398.3,862.7-2071.8c0-198.8,9.6-227.7,93-314.3c118.6-118.6,208.5-118.6,330.3,3.2c96.2,96.2,96.2,99.4,73.8,362.4c-115.4,1411.1-862.7,2543.3-2084.7,3159.1c-583.7,295.1-1116.1,407.3-1812,381.7c-910.8-32.1-1642.1-320.7-2334.8-917.3c-266.2-234.1-356-266.2-490.7-192.4c-93,48.1-134.7,182.8-93,288.6c73.8,176.4,696,647.8,1170.6,885.2c971.8,487.5,2142.4,574.1,3200.7,234.1c1725.4-551.6,2941-2222.6,2941-4041c0-532.4-134.7-1199.5-333.6-1651.7l-83.4-179.6l-109.1,83.4c-163.5,125.1-375.2,176.4-705.6,176.4h-291.8v202c0,275.8-115.4,461.8-397.7,654.3C6717.8-300,6207.9-85.1,5909.6-11.3c-160.4,41.7-166.8,48.1-250.1,243.7c-205.3,468.2-740.9,753.7-1225.2,654.3c-102.6-22.5-256.6-73.8-336.7-115.5c-195.6-96.2-455.4-388.1-526-583.7l-57.7-153.9l-259.8-73.8c-356-96.2-792.2-291.8-997.4-449c-214.9-160.4-336.8-391.3-336.8-631.8v-163.6l-359.2-16c-407.3-16-558-70.6-715.2-256.6c-141.1-166.8-182.8-301.5-170-542c12.8-253.4,112.3-429.7,320.7-564.5c105.8-73.8,176.4-89.8,368.8-99.4l234.1-12.8l352.8-429.8l352.8-429.7v-510v-513.1l83.4-64.2c83.4-67.3,109-67.3,2248.2-67.3H6798l77,80.2c77,77,80.2,89.8,80.2,577.3v503.5l352.8,426.6l349.6,426.5l237.3,12.8c195.7,9.6,259.8,25.7,368.8,99.4c330.3,230.9,776.1,1103.3,959,1882.6c96.2,413.7,134.7,1237.9,77,1680.5C9033.4,2904,7506.8,4530,5518.3,4930.9C5152.7,5004.6,4363.7,5033.5,3998.1,4988.6z M4937.8,331.8c420.1-221.3,449-827.5,51.3-1103.3c-112.2-77-160.4-89.8-359.2-89.8c-195.6,0-247,12.8-359.2,86.6c-186,121.9-314.3,388-285.4,596.5c44.9,340,314.3,583.7,644.6,583.7C4742.2,405.6,4841.6,379.9,4937.8,331.8z M3565.2-646.3c64.1-186,272.6-433,468.2-558.1l144.3-89.8h-837.1c-830.6,0-840.3,0-888.4,70.6c-70.6,99.4-64.1,166.7,28.9,275.8c112.3,131.5,782.5,442.6,978.2,452.2C3491.4-492.4,3529.9-550.1,3565.2-646.3z M6050.7-569.4c301.5-102.6,667.1-298.3,744.1-397.7c77-96.2,80.2-160.4,12.8-256.6c-48.1-70.6-57.8-70.6-888.4-70.6h-840.3l112.3,67.3c237.3,144.3,433,375.2,510,615.8c22.5,64.2,57.7,118.7,80.2,118.7C5803.8-492.4,5925.6-527.7,6050.7-569.4z M8042.4-1890.8c89.8-112.2,83.4-221.3-12.8-317.5l-77-80.2H4629.9H1307.3l-77,80.2c-99.4,96.2-102.6,227.7-9.6,327.1l67.3,73.8h3345.1h3345.1L8042.4-1890.8z M6987.2-2795.1c0-12.8-112.2-160.4-247-327.1l-250.1-301.5l-16-436.2l-16-433l-1834.5-9.6l-1837.7-6.4v429.7v429.8l-256.6,314.3c-141.1,173.2-256.6,327.1-256.6,340c0,16,1061.6,25.7,2357.3,25.7C5925.6-2769.5,6987.2-2779.1,6987.2-2795.1z"/><path d="M4527.3,2859.1c-51.3-22.5-105.8-64.1-118.7-96.2c-9.6-28.9-19.2-288.6-19.2-577.3c0-461.8,6.4-529.2,60.9-596.5c41.7-54.5,93-73.8,179.6-73.8s137.9,19.2,179.6,73.8c54.5,67.4,60.9,134.7,60.9,603c0,288.6-12.8,554.8-32.1,586.9C4790.3,2868.7,4642.8,2907.2,4527.3,2859.1z"/><path d="M3501,2679.5c-147.5-54.5-170-137.9-170-660.7c0-288.6,16-519.6,35.3-564.5c67.4-150.7,256.6-179.6,391.3-60.9c48.1,41.7,54.5,115.5,54.5,615.8c0,500.3-6.4,574.1-54.5,615.8C3680.6,2689.1,3584.4,2711.5,3501,2679.5z"/><path d="M5621,2689.1c-38.5-6.4-96.2-38.5-128.3-77c-54.5-57.7-60.9-125.1-60.9-609.4v-545.2l89.8-77c118.7-102.6,198.8-96.2,314.3,16l93,93v513.1c0,461.8-6.4,519.6-64.2,590.1C5797.4,2679.5,5730,2708.3,5621,2689.1z"/><path d="M2365.7,1916.2c-73.8-60.9-77-80.2-86.6-570.9c-9.6-548.4,9.6-628.6,157.1-712c70.5-38.5,102.6-38.5,179.6-6.4c147.5,60.9,170,147.5,170,689.5c0,449-6.4,500.3-67.4,577.3C2638.3,1996.3,2477.9,2005.9,2365.7,1916.2z"/><path d="M6541.4,1893.7c-60.9-80.2-67.4-128.3-67.4-609.4c0-481.1,6.4-532.4,64.1-590.1c99.4-99.4,218.1-115.5,314.3-41.7c77,57.7,89.8,89.8,102.6,301.5c9.6,131.5,9.6,394.5,0,583.7c-12.9,298.3-25.7,356-77,394.5C6772.3,2005.9,6615.2,1989.9,6541.4,1893.7z"/></g></g>
</svg>