<svg xmlns="http://www.w3.org/2000/svg" xmlns:xlink="http://www.w3.org/1999/xlink" width="0" height="0" style="position:absolute">
	
		<symbol id="all" viewBox="0 0 1000 1000">
			<path d="M10 277.3h267.3V10H10v267.3zM54.5 54.5h178.2v178.2H54.5V54.5zm311.9 222.8h267.3V10H366.4v267.3zm44.5-222.8h178.2v178.2H410.9V54.5zM722.7 10v267.3H990V10H722.7zm222.8 222.7H767.3V54.5h178.2v178.2zM10 633.6h267.3V366.4H10v267.2zm44.5-222.7h178.2v178.2H54.5V410.9zm311.9 222.7h267.3V366.4H366.4v267.2zm44.5-222.7h178.2v178.2H410.9V410.9zm311.8 222.7H990V366.4H722.7v267.2zm44.6-222.7h178.2v178.2H767.3V410.9zM10 990h267.3V722.7H10V990zm44.5-222.7h178.2v178.2H54.5V767.3zM366.4 990h267.3V722.7H366.4V990zm44.5-222.7h178.2v178.2H410.9V767.3zM722.7 990H990V722.7H722.7V990zm44.6-222.7h178.2v178.2H767.3V767.3z"></path>
		</symbol>
	
		<symbol id="arrow_down" viewBox="0 0 48 48">
			<path d="M14.83 16.42L24 25.59l9.17-9.17L36 19.25l-12 12-12-12z"></path><path d="M0-.75h48v48H0z" fill="none"></path>
		</symbol>
	
		<symbol id="arrow_up" viewBox="0 0 48 48">
			<path d="M14.83 30.83L24 21.66l9.17 9.17L36 28 24 16 12 28z"></path><path d="M0 0h48v48H0z" fill="none"></path>
		</symbol>
	
		<symbol id="call" viewBox="0 0 512 512">
			<path d="M426.666 330.667a250.385 250.385 0 0 1-75.729-11.729c-7.469-2.136-16-1.073-21.332 5.333l-46.939 46.928c-60.802-30.928-109.864-80-140.802-140.803l46.939-46.927c5.332-5.333 7.462-13.864 5.332-21.333-8.537-24.531-12.802-50.136-12.802-76.803C181.333 73.604 171.734 64 160 64H85.333C73.599 64 64 73.604 64 85.333 64 285.864 226.136 448 426.666 448c11.73 0 21.334-9.604 21.334-21.333V352c0-11.729-9.604-21.333-21.334-21.333z"></path>
		</symbol>
	
		<symbol id="cosmetology" viewBox="0 0 1000 1000">
			<path d="M616.7 570v5.8c64.2 14.2 87.5-35 87.5-35h-5.8c-35.1 45.9-81.7 29.2-81.7 29.2zm-87.5 233.3c-9.3 3.5-11.7 3.5-17.5 5.8-5.8 2.3-23.3-7-29.2-5.8-5.8 1.2-35 17.5-35 17.5s35 16.3 58.3 17.5c23.3 1.2 29.2 3.5 40.8 0 11.7-3.5 35-11.7 35-11.7s-19.8-12.8-29.2-17.5c-9.2-4.6-13.9-9.3-23.2-5.8zm-11.7-495.8S236 371.7 225.8 610.8C215.6 850 473.8 971 517.5 990c0 0 210-106.5 256.7-361.7 0 0 67-132.7-256.7-320.8zM301.7 561.3c0-9.8 2.9-19.2 8-27.6 13.4-8.7 32.8-4.2 32.8-4.2s6.7 23.2 17.5 29c10.8 5.8 30.8 9.1 40.8 5.8 10-3.3 11.7-21.6 17.5-23.2 5.8-1.7 11.7 34.8 11.7 34.8l17.5 5.8c-.8-14.9-8.3-67.1-58.3-69.6-45.1-2.2-65.8 7.5-74.9 15.1 15.7-19.7 44.7-32.9 77.8-32.9 49.9 0 90.4 30 90.4 67.1 0 37.1-40.5 67.1-90.4 67.1-50-.2-90.4-30.2-90.4-67.2zm280 288.7c-10.5 15.2-29.2 37.3-40.8 40.8-11.7 3.5-58.3-5.8-58.3-5.8s-50.2-44.3-58.3-70c0 0 38.5-47.8 46.7-52.5 8.2-4.7 26.8 0 35 11.7s12.8 2.3 17.5 0c4.7-2.3 11.7-11.7 23.3-11.7 11.7 0 38.5 22.2 52.5 40.8l11.7 17.5c-.2 0-18.8 14-29.3 29.2zm43.7-221.7c-49.9 0-90.4-30-90.4-67.1 0-37.1 40.5-67.1 90.4-67.1 32.7 0 61.3 12.9 77.2 32.1-9.4-7.5-30.2-16.8-74.3-14.6-50 2.5-57.5 55-58.3 70l17.5-5.8s5.8-36.7 11.7-35c5.8 1.7 7.5 20 17.5 23.3 10 3.3 30 0 40.8-5.8 10.8-5.8 17.5-29.2 17.5-29.2s19.2-4.4 32.6 4.1c5.3 8.5 8.2 18 8.2 28 0 37.1-40.4 67.1-90.4 67.1zM319.2 541h-5.8s23.3 48.9 87.5 34.8V570c-.1.1-46.7 16.6-81.7-29z"></path><path d="M844.4 313.3C829.8 169 777.3 10 441.9 10c-149.3 14.5-240 110-274.2 221.7-18.2 59.3-16.4 129.1-11.7 186.7 6.1 73.1 20.8 130.8 46.7 169.2l29.2-5.8s-.7-1.9-1.8-5.4c22.4-36.3 124.6-241.9 386.8-286.3 0 0 154-12.5 190-6.3 5.6 66.4 13.8 209.6-15 257.2l-11.7 58.3h29.2c0-.1 49.6-141.6 35-286zM220.3 535s-.2 2.6-.4 6.7c-30.4-112.5-89.6-427.6 181.3-490.9C760.6 4.9 803.6 249.2 803.6 249.2S395.3 190.8 220.3 535z"></path>
		</symbol>
	
		<symbol id="cross" viewBox="0 0 1000 1000">
			<path d="M978.3 927.8L548.7 498.2 978.3 68.7c14.1-14.1 14.1-35.2 0-49.3-14.1-14.1-35.2-14.1-49.3 0L499.4 441.9 83.9 33.4c-14.1-14.1-35.2-14.1-49.3 0-14.1 14.1-14.1 35.2 0 49.3l415.5 415.5L20.6 927.8c-14.1 14.1-14.1 35.2 0 49.3 7 7 14.1 14.1 21.1 14.1 7 0 21.1 0 28.2-7l429.6-436.6L929 977.1c7 7 14.1 7 28.2 7s21.1 0 28.2-7c7-14.1 7-35.2-7.1-49.3z"></path>
		</symbol>
	
		<symbol id="eyelash_1" viewBox="0 0 1000 1000">
			<path d="M703.28 278.89c-6.64 6.64-14.55 42.13-14.55 65.62 0 41.87 12.51 70.98 44.68 103.66l20.43 20.68-28.6 1.79-28.34 1.78-21.19-10.98c-35.24-18.38-59.75-45.19-71.49-77.87-6.13-17.11-7.66-56.68-2.81-73.02 2.3-8.17 2.04-10.47-2.04-15.32-6.64-7.91-13.02-3.83-17.11 10.98-4.34 17.11-4.08 60.25.77 76.59 10.21 33.7 34.72 66.13 65.36 86.3l15.57 10.21-11.23 2.81c-6.13 1.53-17.36 4.59-24.51 6.64-12 3.32-15.32 3.32-29.36-.51-55.4-14.04-99.32-59.23-113.11-115.91-2.3-9.19-4.85-30.13-5.62-46.47-1.53-31.66-3.83-37.02-13.28-33.96-7.4 2.3-8.94 10.72-7.15 38.3 5.36 79.4 40.85 137.36 101.87 165.7l17.1 8.17-17.62 5.87c-15.07 5.11-20.68 5.87-37.53 4.6-27.06-2.3-46.72-7.66-71.23-19.66-47.49-23.23-70.72-58.72-74.55-114.64-1.79-24.25-1.79-24.51-8.68-25.28-10.47-1.28-13.28 6.38-10.98 30.64 3.57 43.66 15.57 70.21 43.66 98.3 20.94 20.68 48 35.74 80.42 43.91 17.11 4.34 18.38 5.11 12.51 7.41-3.57 1.53-16.08 6.89-28.08 12-25.28 10.98-37.28 11.49-67.15 3.83-68.94-17.36-107.23-60.77-110.81-125.1-.77-13.28-2.55-25.79-4.08-27.57-3.32-4.34-8.17-3.83-13.53 1.28-3.57 3.83-4.09 7.66-2.81 27.57 1.02 12.51 3.58 29.36 5.87 37.02 14.57 49.52 54.91 87.31 110.82 103.64l19.15 5.62-9.7 4.08c-5.36 2.3-16.09 7.15-24 10.47-17.62 7.91-36 8.17-62.55 1.53-57.96-14.8-92.68-52.59-95.75-103.14-.51-11.49-1.53-23.49-2.3-26.3-1.28-6.89-7.4-9.45-14.04-6.13-4.09 2.3-4.85 5.62-4.85 20.43 0 38.81 12 68.94 38.04 94.47 18.38 18.13 45.19 33.19 68.68 38.55 7.15 1.79 13.28 3.83 13.28 4.59 0 1.02-11.74 6.13-26.04 11.49-25.79 9.96-26.04 9.96-44.93 7.15-46.72-7.41-86.81-32.94-103.4-66.13-9.7-19.4-12.77-31.15-14.3-55.66-1.53-21.45-1.79-22.98-7.4-23.74-9.7-1.53-13.28 3.83-13.28 19.66.26 38.55 14.55 74.04 40.59 99.83 18.13 17.87 34.72 28.08 61.02 37.27l16.6 5.62-20.94 6.64c-24.25 7.66-31.91 8.17-52.6 2.81-25.53-6.64-45.45-17.87-60.76-34.47-16.85-18.13-24-35.49-26.81-64.34-1.28-15.32-2.81-21.45-6.13-23.49-3.57-2.04-5.62-1.79-8.94 1.79-3.83 3.58-4.6 8.17-4.08 23.49 1.53 45.96 24.76 81.96 67.15 103.15 16.08 8.17 18.89 10.21 14.55 11.49-12.77 3.06-67.15 9.19-82.47 9.19-14.3 0-17.36 1.02-22.72 6.38-10.21 9.96-6.89 26.55 6.64 31.91 14.3 6.13 87.32-2.55 143.49-16.85 61.53-15.57 121.27-37.79 249.44-92.42 153.19-65.36 205.78-83.74 278.29-96.51 31.4-5.61 89.11-5.61 113.62-.25 54.38 12.25 90.89 33.96 132 78.38 19.15 20.94 21.96 22.98 30.64 22.98 10.47 0 19.91-8.94 19.91-19.15 0-14.3-45.19-61.28-81.7-84.77-13.28-8.68-28.6-19.4-33.7-23.74-12.51-10.72-28.34-34.47-35.23-53.1-16.34-43.4-11.49-77.11 19.15-127.15 4.08-6.89 4.34-8.68 1.53-12.25-8.68-10.21-20.17-.26-34.47 29.87-11.23 24-15.32 41.62-14.81 66.89.26 24 8.42 52.85 20.68 72.51 4.34 7.15 7.66 13.02 7.15 13.02-.51 0-10.72-2.3-22.98-4.85-17.11-3.83-25.79-7.4-39.32-16.34-25.53-16.85-45.19-38.81-56.42-62.3-8.42-18.13-9.45-22.21-10.21-45.96-1.02-21.45 0-29.11 4.85-45.45 4.09-14.3 5.11-20.94 3.06-24-3.57-5.61-9.45-6.38-14.3-1.78z"></path>
		</symbol>
	
		<symbol id="eyelash_2" viewBox="0 0 1000 1000">
			<path d="M698.4 455.3c5-5 9.4-10 13.8-15 35.7 14.4 156.4 53.2 277.9-25.7 0 0-179 26.9-227.8-49.4 0-.6.6-.6.6-1.3l-.6.6-.6-.6-6.9 8.1c-21.3 21.3-58.8 63.2-122.7 92-57.6 26.3-134.5 37.5-197.8 36.9-155.8-1.3-222.2-87-259.7-112-33.8-18.1-36.9-30.7-80.1-10-57.6 27.5-84.5 97-84.5 97 84.5-34.4 145.2-8.1 160.8 2.5.6.6 1.9 1.3 2.5 1.9 12.5 8.8 25.7 16.9 38.8 24.4-6.3 35-47.6 53.8-47.6 53.8 58.8-9.4 75.7-22.5 87-35.7 13.1 5.6 26.9 10 40.7 14.4-4.4 42.6-48.8 74.5-48.8 74.5 60.1-10.6 82-46.9 88.9-64.5 15.6 3.1 31.9 5 48.2 6.9 12.5 34.4-6.9 82-6.9 82 30.7-24.4 45.1-65.1 49.4-80.1 14.4 0 28.8-.6 42.6-1.9 6.9 15.6 27.5 55.7 57.6 80.1 0 0-20-38.2-11.3-85.7 11.3-1.9 21.9-4.4 32.5-6.9 10 14.4 41.9 49.4 123.3 56.9 0 0-67-21.3-65.1-77 10-4.4 19.4-9.4 28.8-15 16.3 14.4 75.1 55.7 214 46.3.7.1-122-18.7-147-97.5z"></path>
		</symbol>
	
		<symbol id="filter" viewBox="0 0 1000 1000">
			<path d="M10 65.92v51.66l50.33 60.72c27.43 33.29 116.11 140.35 197.07 237.81l146.73 176.83v285.21l94 54.06C549.53 961.77 592.67 986 594 986c1.07 0 1.86-88.41 1.86-196.53V593.2l133.69-161.11c73.23-88.68 161.91-195.73 197.07-237.81l63.38-76.7V13.99H10v51.93z"></path>
		</symbol>
	
		<symbol id="fingernail" viewBox="0 0 1000 1000">
			<path d="M519.7 987.2s22.3-19.5-16.8-53.1c0 0-102.4-66.7-164.1-141.1-16-25.5-63.2-76-67.4-114.3-4.3-38.3-41.7-119.4-41.7-119.4s-11-53.9 43.5-55.2c51.5 18.5 106.3 148 106.3 148s39.6 29.5 47.2-5.1c0 0 12.1-46.3-4.2-124.4-17.5-84.1-35.9-151.2-53.5-264.1-3.2-75.5 69.7-49.2 75.9-20.2 7.6 1.2 81.1 289.5 103.6 282.8 15.2-4.5-85.3-352.9-56.1-369.3 16-34.5 71.1-26.6 76.6-2 6.1 27.8 104.4 394.2 112.3 368.3 9.4-30.7-41.5-287.8-29-302.7 26.8-32.1 71.4-23.3 75.1 20.1.9 10.4 34.2 334.5 53.4 315.3 22.5-22.5-.8-127.3 9.3-204.2 5.9-44.7 56-22.1 56 14.2 0 64.2 15.8 280.2 14.5 294.1 0 0-.3 129.3-48.9 284.9L797 990l-277.3-2.8zM226.5 452.3l6.1-53.8s.8-3.9-3-4.4c-5.2-.7-54-6-54-6s-6.6-.9-2.8 4.1 10 12.9 10 12.9-2.2 1.7-5.4 4.2c-10.2 7.9-29.9 23.2-37.5 29 0 0-1.8 1.3 0 3.6s22 28.3 24.5 31.5c2.5 3.2 4.1 1 4.1 1 7.8-6 26.9-20.8 37.4-29 3.7-2.9 6-4.7 6-4.7s7.6 9.8 10.8 13.9c3.2 4.2 3.8-2.3 3.8-2.3zM471.3 12.5l-30.1 45s-2.5 3.1.7 5.2c4.3 3 45.1 30.2 45.1 30.2s5.5 3.8 4.4-2.3c-1.1-6.2-3-16-3-16s2.7-.5 6.8-1.2c12.6-2.3 37.2-6.8 46.6-8.5 0 0 2.2-.3 1.7-3.2-.5-2.9-6.4-35.3-7.2-39.3-.7-4-3.2-2.8-3.2-2.8-9.7 1.8-33.5 6.1-46.5 8.5-4.6.9-7.5 1.4-7.5 1.4s-2.2-12.3-3.2-17.3c-1-5.1-4.6.3-4.6.3z"></path><path d="M258.6 466.3c-40.2 0-72.7 32.6-72.7 72.7 0 40.2 32.6 72.7 72.7 72.7 40.2 0 72.7-32.6 72.7-72.7 0-40.2-32.6-72.7-72.7-72.7zm0 130.3c-31.8 0-57.7-25.8-57.7-57.6s25.8-57.7 57.7-57.7c31.8 0 57.6 25.8 57.6 57.7s-25.8 57.6-57.6 57.6zM404 175.2c-40.2 0-72.7 32.6-72.7 72.7s32.6 72.7 72.7 72.7c40.2 0 72.7-32.6 72.7-72.7s-32.5-72.7-72.7-72.7zm0 130.3c-31.8 0-57.7-25.8-57.7-57.7 0-31.8 25.8-57.7 57.7-57.7 31.8 0 57.7 25.8 57.7 57.7 0 31.9-25.9 57.7-57.7 57.7zM532.4 98.6c-40.2 0-72.7 32.6-72.7 72.7s32.6 72.7 72.7 72.7c40.2 0 72.7-32.6 72.7-72.7s-32.6-72.7-72.7-72.7zm0 130.3c-31.8 0-57.6-25.8-57.6-57.7 0-31.8 25.8-57.7 57.6-57.7s57.7 25.8 57.7 57.7c-.1 31.9-25.9 57.7-57.7 57.7zm152.7-66.5c-40.2 0-72.7 32.6-72.7 72.7 0 40.2 32.6 72.7 72.7 72.7 40.2 0 72.7-32.6 72.7-72.7s-32.5-72.7-72.7-72.7zm0 130.4c-31.8 0-57.6-25.8-57.6-57.7 0-31.8 25.8-57.7 57.6-57.7s57.7 25.8 57.7 57.7c0 31.9-25.8 57.7-57.7 57.7z"></path>
		</symbol>
	
		<symbol id="location" viewBox="0 0 1000 1000">
			<path d="M460.25 11.5C352.41 26.03 259.32 96.64 215.96 197.21c-19.07 44.5-27.93 98.76-22.93 141.67 10.9 94.67 91.95 283.8 226.35 526.95 54.72 98.99 67.43 120.33 74.47 122.6 13.62 4.77 16.58 1.59 47.45-52.45 110.11-192.3 208.42-395.95 243.38-504.25 24.29-75.38 28.83-117.38 18.39-172.55C779.69 137.03 681.38 38.5 558.55 14.66c-22.7-4.52-76.28-6.11-98.3-3.16zm88.54 150.52c25.65 8.17 44.95 20.21 65.84 41.09 20.66 20.66 32.69 39.73 41.32 65.84 5.22 16.12 5.9 21.79 5.9 48.81 0 27.02-.68 32.69-5.9 48.81-8.63 26.11-20.66 45.18-41.32 65.84-20.66 20.66-39.73 32.69-65.84 41.32-16.12 5.22-21.79 5.9-48.81 5.9-27.02 0-32.69-.68-48.81-5.9-26.11-8.63-45.18-20.66-65.84-41.32-20.66-20.66-32.69-39.73-41.32-65.84-5.22-16.12-5.9-21.8-5.9-48.81-.23-26.79.68-32.92 5.68-48.13 8.85-27.02 20.89-46.32 41.32-66.75 24.97-24.97 53.58-40.18 86.5-46.31 19.97-3.63 56.75-.9 77.18 5.45z"></path><path d="M471.15 194.04c-20.89 4.54-44.5 17.93-61.07 34.51-49.27 49.49-49.27 129.18.45 178.9 61.3 61.3 165.28 44.04 202.97-33.83 46.77-96.49-37.23-202.29-142.35-179.58zm43.13 90.58c23.39 9.76 29.06 40.19 10.9 58.35-25.43 25.65-67.2 2.72-60.62-33.15 4.09-21.34 29.06-34.05 49.72-25.2z"></path>
		</symbol>
	
		<symbol id="mail" viewBox="0 0 512 512">
			<path d="M437.332 80H74.668C51.199 80 32 99.198 32 122.667v266.666C32 412.802 51.199 432 74.668 432h362.664C460.801 432 480 412.802 480 389.333V122.667C480 99.198 460.801 80 437.332 80zM432 170.667L256 288 80 170.667V128l176 117.333L432 128v42.667z"></path>
		</symbol>
	
		<symbol id="massage" viewBox="0 0 1000 1000">
			<path d="M648.1 936.9H10v-59.5c11.6 9.2 26.4 14.8 42.4 14.8h551.7l44 44.7zm-362-873.8c-34.2 0-62 27.8-62 62 0 21.3 10.7 40 27.1 51.2 7-19.5 18.5-37.4 33.6-52.6 15.1-15.1 33.1-26.5 52.6-33.6-11.2-16.3-30-27-51.3-27zm-17.7 162.5c0 65.3 53 118.2 118.2 118.2s118.2-53 118.2-118.2c0-65.3-53-118.2-118.2-118.2-13.9 0-27.2 2.4-39.5 6.7-33.5 11.9-60.1 38.5-71.9 71.9-4.4 12.5-6.8 25.8-6.8 39.6zm-64.1 163c-27.7 61.4-88 218.2-104.6 257.7h205.9c4.6-11.2 9.6-22.1 15.2-32.3 19.4-36.2 79.9-54.1 65.5-104.6-.1-.4-.3-.8-.4-1.3l54.2 51.4c4 3.8 8.9 6.9 14.1 8.9L602.4 625c5 1.9 10.2 2.8 15.2 2.8 17.2 0 33.4-10.5 39.8-27.5 8.4-22-2.6-46.6-24.7-55l-131-50.1c-6.1-2.4-11.7-5.9-16.5-10.4 0 0-115.4-109.5-115.5-109.6-4.9-4.7-11.2-7.7-17.8-9.8-1.6-.5-3.2-1-4.9-1.5-1.8-.5-3.6-1-5.5-1.5-28.8-7.7-60.8-14.2-90.5-11.6-9.7.8-20.4 3.3-28.7 9-9.4 6.9-13.4 18.6-18 28.8zM52.4 866.3h562.5l53.9 54.6c5.1 5.2 11.2 9.2 17.7 11.9 6.4 2.6 13.3 4 20.3 4h229.7c29.9 0 53.9-24.5 53.5-54.3-.5-29.3-25-52.6-54.3-52.6H729.2L588.8 687.6c-10.9-11.1-17.3-15.7-36.8-15.7-33.6 0-499.6.3-499.6.3-23.4 0-42.4 19-42.4 42.4v109.3c0 23.4 19 42.4 42.4 42.4zm860.5-195.5c0-67.7-54.9-122.6-122.6-122.6-67.7 0-122.6 54.9-122.6 122.6 0 67.7 54.9 122.6 122.6 122.6 67.6 0 122.6-54.8 122.6-122.6z"></path>
		</symbol>
	
		<symbol id="menu" viewBox="0 0 512 512">
			<path d="M64 384h384v-42.666H64V384zm0-106.666h384v-42.667H64v42.667zM64 128v42.665h384V128H64z"></path>
		</symbol>
	
		<symbol id="price-arrow-down" viewBox="0 0 1000 1000">
			<path d="M39.2 17.8c10.4-10.4 27.2-10.4 37.6 0l404.4 404.4c10.4 10.4 27.2 10.4 37.6 0L923.2 17.8c10.4-10.4 27.2-10.4 37.6 0 10.4 10.4 10.4 27.2 0 37.6l-442 442c-10.4 10.4-27.2 10.4-37.6 0l-442-442c-10.4-10.4-10.4-27.2 0-37.6zm0 484.8c10.4-10.4 27.2-10.4 37.6 0L481.2 907c10.4 10.4 27.2 10.4 37.6 0l404.4-404.4c10.4-10.4 27.2-10.4 37.6 0 10.4 10.4 10.4 27.2 0 37.6l-442 442c-10.4 10.4-27.2 10.4-37.6 0l-442-442c-10.4-10.4-10.4-27.2 0-37.6z"></path>
		</symbol>
	
		<symbol id="scissors" viewBox="0 0 1000 1000">
			<path d="M192.46 15.6c-6.52 14.18-8.05 28.55-8.05 76.26.19 87.76 15.33 179.36 46.95 282.64 28.55 93.51 25.29 86.42 56.14 122.25 8.05 9.39 14.18 18.01 13.8 19.16-.38 1.34-15.14 47.91-32.58 103.86-17.63 55.76-36.6 116.5-42.54 134.9l-10.54 33.34-4.98-6.51c-18.4-23.76-43.11-35.83-77.99-37.56-58.44-3.07-101.37 31.04-118.23 93.7-5.17 19.16-5.93 54.23-1.72 69.56 8.62 30.28 29.51 55.57 57.29 69.56 62.85 31.43 127.62 5.37 156.17-62.85 2.87-6.9 17.25-52.5 32-101.56 34.3-113.63 71.09-229.94 72.81-229.94 1.92 0 44.84 136.43 84.31 268.27 8.62 28.93 18.59 59.02 22.23 66.68 30.47 66.49 92.36 90.44 154.45 59.4 27.4-13.8 49.05-40.05 57.29-69.56 3.83-13.99 3.45-50.39-.96-66.68-10.92-41.01-30.66-68.79-59.98-84.31-45.61-23.95-107.69-13.22-135.09 23.19-4.22 5.56-6.52 7.28-7.47 5.75-.77-1.34-19.93-61.51-42.54-133.75-22.8-72.24-41.77-132.6-42.54-134.13-.57-1.92 5.56-10.73 17.05-24.34 9.77-11.69 19.74-23.95 22.04-27.21 4.41-6.13 27.21-76.65 40.43-124.55 15.33-55.38 26.83-114.78 33.92-172.65 4.79-40.05 4.79-118.04 0-137.97-3.64-15.52-7.28-22.04-11.31-20.5-1.53.58-29.89 87.57-66.68 205.22-35.25 112.28-64.57 204.26-65.14 204.26-.57 0-29.89-92.17-65.15-204.65C218.33 63.69 200.7 10.23 198.59 9.85c-1.92-.39-4.21 1.91-6.13 5.75zm-44.84 767.05c23.38 6.13 38.13 17.82 47.71 38.51 19.35 41.2-3.64 104.24-45.41 124.55-47.33 23-102.52-15.71-102.52-71.85 0-32.58 18.78-70.52 41.39-83.74 17.63-10.35 37.94-13.03 58.83-7.47zm419.84 4.6c20.7 10.16 35.83 31.42 43.31 60.74 11.11 43.11-3.83 79.14-40.62 97.92-9.01 4.79-12.26 5.36-28.36 5.36-16.29 0-19.35-.57-29.7-5.56-41.96-20.5-64.77-83.35-45.41-124.55 13.03-27.79 38.32-41.96 72.62-40.81 12.83.57 17.62 1.72 28.16 6.9zM719.03 29.39c-6.32 6.32-6.32 15.14 0 21.27l4.6 4.79h83.54c80.86 0 83.54.19 87.19 3.83 2.49 2.49 3.83 6.32 3.83 11.5 0 5.17-1.34 9.01-3.83 11.5-3.64 3.64-6.32 3.83-87.19 3.83h-83.54l-4.6 4.79c-3.07 2.87-4.79 6.9-4.79 10.54s1.73 7.67 4.79 10.54l4.6 4.79h83.54c80.86 0 83.54.19 87.19 3.83 2.49 2.49 3.83 6.32 3.83 11.5 0 5.17-1.34 9.01-3.83 11.5-3.64 3.64-6.32 3.83-87.19 3.83h-83.54l-4.6 4.79c-6.32 6.13-6.32 14.95 0 21.08l4.6 4.79h83.54c80.86 0 83.54.19 87.19 3.83 5.17 5.17 5.17 17.82 0 22.99-3.64 3.64-6.32 3.83-87.19 3.83h-83.54l-4.6 4.79c-6.32 6.13-6.32 14.95 0 21.08l4.6 4.79h83.54c80.86 0 83.54.19 87.19 3.83 2.49 2.49 3.83 6.32 3.83 11.5s-1.34 9.01-3.83 11.5c-3.64 3.64-6.32 3.83-87.19 3.83h-83.54l-4.6 4.79c-3.07 2.87-4.79 6.9-4.79 10.54s1.73 7.66 4.79 10.54l4.6 4.79h83.54c80.86 0 83.54.19 87.19 3.83 2.49 2.49 3.83 6.32 3.83 11.5 0 5.17-1.34 9.01-3.83 11.5-3.64 3.64-6.32 3.83-87.19 3.83h-83.54l-4.6 4.79c-6.32 6.13-6.32 14.95 0 21.08l4.6 4.79h83.54c80.86 0 83.54.19 87.19 3.83 2.49 2.49 3.83 6.32 3.83 11.5s-1.34 9.01-3.83 11.5c-3.64 3.64-6.32 3.83-87.19 3.83h-83.54l-4.6 4.79c-3.07 2.87-4.79 6.9-4.79 10.54s1.73 7.66 4.79 10.54l4.6 4.79h83.54c80.86 0 83.54.19 87.19 3.83 2.49 2.49 3.83 6.32 3.83 11.5 0 5.17-1.34 9.01-3.83 11.5-3.64 3.64-6.32 3.83-87.19 3.83h-83.54l-4.6 4.79c-3.07 2.87-4.79 6.9-4.79 10.54s1.73 7.66 4.79 10.54l4.6 4.79h83.54c80.86 0 83.54.19 87.19 3.83 5.17 5.17 5.17 17.82 0 22.99-3.64 3.64-6.32 3.83-87.19 3.83h-83.54l-4.6 4.79c-6.32 6.13-6.32 14.95 0 21.08l4.6 4.79h83.54c80.86 0 83.54.19 87.19 3.83 2.49 2.49 3.83 6.32 3.83 11.5 0 5.17-1.34 9.01-3.83 11.5-3.64 3.64-6.32 3.83-87.19 3.83h-83.54l-4.6 4.79c-3.07 2.87-4.79 6.9-4.79 10.54 0 3.64 1.73 7.67 4.79 10.54l4.6 4.79h83.54c80.86 0 83.54.19 87.19 3.83 5.17 5.17 5.17 17.82 0 22.99-3.64 3.64-6.32 3.83-87.19 3.83h-83.54l-4.6 4.79c-6.32 6.13-6.32 14.95 0 21.08l4.6 4.79h83.54c80.86 0 83.54.19 87.19 3.83 5.17 5.17 5.17 17.82 0 22.99-3.64 3.64-6.32 3.83-87.19 3.83h-83.54l-4.6 4.79c-5.75 5.56-6.13 14.18-1.15 20.31l3.64 4.6 85.08.57c83.55.38 84.89.38 88.34 4.41 4.6 5.56 4.22 18.01-.57 22.8-3.64 3.64-6.32 3.83-87.19 3.83h-83.54l-4.6 4.79c-6.32 6.13-6.32 14.95 0 21.08l4.6 4.79h168.62l2.87 4.22c4.41 6.13 3.83 18.01-.77 22.61-3.64 3.64-6.32 3.83-87.19 3.83h-83.54l-4.6 4.79c-6.32 6.13-6.32 14.95 0 21.08l4.6 4.79h83.54c80.86 0 83.54.19 87.19 3.83 5.17 5.17 5.17 17.82 0 22.99-3.64 3.64-6.32 3.83-87.19 3.83h-83.54l-4.6 4.79c-5.75 5.56-6.13 14.18-1.15 20.31l3.64 4.6 85.08.57c83.55.38 84.89.38 88.34 4.41 4.6 5.56 4.22 18.01-.57 22.8-3.64 3.64-6.32 3.83-87.19 3.83h-83.54l-4.6 4.79c-6.32 6.13-6.32 14.95 0 21.27l4.79 4.6 123.21-.38 123.4-.57 6.71-5.17c14.37-10.92 13.03 33.34 12.65-471.57l-.57-453.37-4.02-5.17c-2.11-2.87-6.33-7.09-9.2-9.2-5.17-4.02-7.47-4.02-128.77-4.6l-123.4-.38-4.81 4.62z"></path>
		</symbol>
	
		<symbol id="solarium" viewBox="0 0 1000 1000">
			<path d="M399.81 12.14c-99.1 12.19-205.9 64.46-271 131.81-28.54 30.15-34 56.77-18.28 88.84 10.26 20.53 27.58 34 50.67 39.13 26.3 5.77 46.5-1.6 75.37-27.26 54.2-48.75 113.53-76.33 183.13-85.31 100.38-13.15 211.03 27.26 279.34 101.67 51.31 56.13 85.95 139.83 86.27 207.18 0 19.88.96 22.77 9.3 31.43 11.86 11.86 20.85 11.86 33.03-.32 9.62-9.62 9.62-9.94 7.38-36.24-11.54-141.11-86.27-254.33-208.47-315.91-58.37-29.51-111.61-40.73-181.2-38.17-91.08 3.21-164.21 32.07-233.48 91.73-26.62 23.41-35.6 26.62-49.07 19.24-9.3-4.81-13.47-18.28-9.3-28.86 7.38-17.64 69.6-64.78 117.06-88.52 97.18-48.75 214.24-57.41 320.07-23.41 172.54 55.16 294.1 222.26 294.1 404.1 0 53.24-13.47 119.95-33.36 165.17l-8.34 17.96-10.91-8.34c-16.35-12.51-37.52-17.64-70.56-17.64h-29.18v-20.2c0-27.58-11.54-46.18-39.77-65.43-20.83-13.79-71.82-35.28-101.65-42.66-16.04-4.17-16.68-4.81-25.01-24.37-20.53-46.82-74.09-75.37-122.52-65.43-10.26 2.25-25.66 7.38-33.67 11.55-19.56 9.62-45.54 38.81-52.6 58.37l-5.77 15.39-25.98 7.38c-35.6 9.62-79.22 29.18-99.74 44.9-21.49 16.04-33.68 39.13-33.68 63.18v16.36l-35.92 1.6c-40.73 1.6-55.8 7.06-71.52 25.66-14.11 16.68-18.28 30.15-17 54.2 1.28 25.34 11.23 42.97 32.07 56.45 10.58 7.38 17.64 8.98 36.88 9.94l23.41 1.28 35.28 42.98 35.28 42.97v102.31l8.34 6.42c8.34 6.73 10.9 6.73 224.82 6.73H679.8l7.7-8.02c7.7-7.7 8.02-8.98 8.02-57.73V873.9l35.28-42.66 34.96-42.65 23.73-1.28c19.57-.96 25.98-2.57 36.88-9.94 33.03-23.09 77.61-110.33 95.9-188.26 9.62-41.37 13.47-123.79 7.7-168.05C903.34 220.6 750.68 58 551.83 17.91c-36.56-7.37-115.46-10.26-152.02-5.77zm93.97 465.68c42.01 22.13 44.9 82.75 5.13 110.33-11.22 7.7-16.04 8.98-35.92 8.98-19.56 0-24.7-1.28-35.92-8.66-18.6-12.19-31.43-38.8-28.54-59.65 4.49-34 31.43-58.37 64.46-58.37 11.23-.01 21.17 2.56 30.79 7.37zm-137.26 97.81c6.41 18.6 27.26 43.3 46.82 55.81l14.43 8.98h-83.71c-83.06 0-84.03 0-88.84-7.06-7.06-9.94-6.41-16.67 2.89-27.58 11.23-13.15 78.25-44.26 97.82-45.22 3.21-.32 7.06 5.45 10.59 15.07zm248.55-7.69c30.15 10.26 66.71 29.83 74.41 39.77 7.7 9.62 8.02 16.04 1.28 25.66-4.81 7.06-5.78 7.06-88.84 7.06h-84.03l11.23-6.73c23.73-14.43 43.3-37.52 51-61.58 2.25-6.42 5.77-11.87 8.02-11.87 2.24-.01 14.42 3.52 26.93 7.69zm199.17 132.14c8.98 11.22 8.34 22.13-1.28 31.75l-7.7 8.02H130.73l-7.7-8.02c-9.94-9.62-10.26-22.77-.96-32.71l6.73-7.38h669.02l6.42 8.34zm-105.52 90.43c0 1.28-11.22 16.04-24.7 32.71l-25.01 30.15-1.6 43.62-1.6 43.3-183.45.96-183.77.64v-85.95l-25.66-31.43c-14.11-17.32-25.66-32.71-25.66-34 0-1.6 106.16-2.57 235.73-2.57 129.56.01 235.72.97 235.72 2.57z"></path><path d="M452.73 225.09c-5.13 2.25-10.58 6.41-11.87 9.62-.96 2.89-1.92 28.86-1.92 57.73 0 46.18.64 52.92 6.09 59.65 4.17 5.45 9.3 7.38 17.96 7.38s13.79-1.92 17.96-7.38c5.45-6.74 6.09-13.47 6.09-60.3 0-28.86-1.28-55.48-3.21-58.69-4.8-8.97-19.55-12.82-31.1-8.01zM350.1 243.05c-14.75 5.45-17 13.79-17 66.07 0 28.86 1.6 51.96 3.53 56.45 6.74 15.07 25.66 17.96 39.13 6.09 4.81-4.17 5.45-11.55 5.45-61.58s-.64-57.41-5.45-61.58c-7.7-6.41-17.32-8.65-25.66-5.45zm212-.96c-3.85.64-9.62 3.85-12.83 7.7-5.45 5.77-6.09 12.51-6.09 60.94v54.52l8.98 7.7c11.87 10.26 19.88 9.62 31.43-1.6l9.3-9.3v-51.31c0-46.18-.64-51.96-6.42-59.01-6.73-8.68-13.47-11.56-24.37-9.64zm-325.53 77.29c-7.38 6.09-7.7 8.02-8.66 57.09-.96 54.84.96 62.86 15.71 71.2 7.05 3.85 10.26 3.85 17.96.64 14.75-6.09 17-14.75 17-68.95 0-44.9-.64-50.03-6.74-57.73-8.01-10.26-24.05-11.22-35.27-2.25zm417.57 2.25c-6.09 8.02-6.74 12.83-6.74 60.94s.64 53.24 6.41 59.01c9.94 9.94 21.81 11.55 31.43 4.17 7.7-5.77 8.98-8.98 10.26-30.15.96-13.15.96-39.45 0-58.37-1.29-29.83-2.57-35.6-7.7-39.45-10.57-7.37-26.28-5.77-33.66 3.85z"></path>
		</symbol>
	
		<symbol id="time" viewBox="0 0 512 512">
			<g fill-opacity=".9"><path d="M255.8 48C141 48 48 141.2 48 256s93 208 207.8 208c115 0 208.2-93.2 208.2-208S370.8 48 255.8 48zm.2 374.4c-91.9 0-166.4-74.5-166.4-166.4S164.1 89.6 256 89.6 422.4 164.1 422.4 256 347.9 422.4 256 422.4z"></path><path d="M266.4 152h-31.2v124.8l109.2 65.5 15.6-25.6-93.6-55.5V152z"></path></g>
		</symbol>
	
		<symbol id="x-icon" viewBox="0 0 1000 1000">
			<path d="M337 389.8l38.3-38.4L661.6 640l-38.4 38.4L337 389.8z"></path><path d="M625 352.3l38.4 38.4-287.2 287.7-38.4-38.4L625 352.3zM39.7 24.9H990v29.7H39.7V24.9zm-29.7 0h29.7v920.6H10V24.9z"></path><path d="M10 945.4h980v29.7H10v-29.7z"></path><path d="M960.3 24.9H990v950.3h-29.7V24.9z"></path>
		</symbol>
	
</svg>
