<?xml version="1.0" encoding="utf-8"?>
<!-- Svg Vector Icons : http://www.onlinewebfonts.com/icon -->
<!DOCTYPE svg PUBLIC "-//W3C//DTD SVG 1.1//EN" "http://www.w3.org/Graphics/SVG/1.1/DTD/svg11.dtd">
<svg version="1.1" xmlns="http://www.w3.org/2000/svg" xmlns:xlink="http://www.w3.org/1999/xlink" x="0px" y="0px" viewBox="0 0 1000 1000" enable-background="new 0 0 1000 1000" xml:space="preserve">
<metadata> Svg Vector Icons : http://www.onlinewebfonts.com/icon </metadata>
<g><path d="M616.7,570v5.8c64.2,14.2,87.5-35,87.5-35h-5.8C663.3,586.7,616.7,570,616.7,570z M529.2,803.3c-9.3,3.5-11.7,3.5-17.5,5.8c-5.8,2.3-23.3-7-29.2-5.8c-5.8,1.2-35,17.5-35,17.5s35,16.3,58.3,17.5c23.3,1.2,29.2,3.5,40.8,0c11.7-3.5,35-11.7,35-11.7s-19.8-12.8-29.2-17.5C543.2,804.5,538.5,799.8,529.2,803.3z M517.5,307.5c0,0-281.5,64.2-291.7,303.3C215.6,850,473.8,971,517.5,990c0,0,210-106.5,256.7-361.7C774.2,628.3,841.2,495.6,517.5,307.5z M301.7,561.3c0-9.8,2.9-19.2,8-27.6c13.4-8.7,32.8-4.2,32.8-4.2s6.7,23.2,17.5,29c10.8,5.8,30.8,9.1,40.8,5.8c10-3.3,11.7-21.6,17.5-23.2c5.8-1.7,11.7,34.8,11.7,34.8l17.5,5.8c-0.8-14.9-8.3-67.1-58.3-69.6c-45.1-2.2-65.8,7.5-74.9,15.1c15.7-19.7,44.7-32.9,77.8-32.9c49.9,0,90.4,30,90.4,67.1c0,37.1-40.5,67.1-90.4,67.1C342.1,628.3,301.7,598.3,301.7,561.3z M581.7,850c-10.5,15.2-29.2,37.3-40.8,40.8c-11.7,3.5-58.3-5.8-58.3-5.8s-50.2-44.3-58.3-70c0,0,38.5-47.8,46.7-52.5c8.2-4.7,26.8,0,35,11.7c8.2,11.7,12.8,2.3,17.5,0c4.7-2.3,11.7-11.7,23.3-11.7c11.7,0,38.5,22.2,52.5,40.8l11.7,17.5C610.8,820.8,592.2,834.8,581.7,850z M625.4,628.3c-49.9,0-90.4-30-90.4-67.1c0-37.1,40.5-67.1,90.4-67.1c32.7,0,61.3,12.9,77.2,32.1c-9.4-7.5-30.2-16.8-74.3-14.6c-50,2.5-57.5,55-58.3,70l17.5-5.8c0,0,5.8-36.7,11.7-35c5.8,1.7,7.5,20,17.5,23.3c10,3.3,30,0,40.8-5.8c10.8-5.8,17.5-29.2,17.5-29.2s19.2-4.4,32.6,4.1c5.3,8.5,8.2,18,8.2,28C715.8,598.3,675.4,628.3,625.4,628.3z M319.2,541h-5.8c0,0,23.3,48.9,87.5,34.8v-5.8C400.8,570.1,354.2,586.6,319.2,541z"/><path d="M844.4,313.3C829.8,169,777.3,10,441.9,10c-149.3,14.5-240,110-274.2,221.7c-18.2,59.3-16.4,129.1-11.7,186.7c6.1,73.1,20.8,130.8,46.7,169.2l29.2-5.8c0,0-0.7-1.9-1.8-5.4c22.4-36.3,124.6-241.9,386.8-286.3c0,0,154-12.5,190-6.3c5.6,66.4,13.8,209.6-15,257.2l-11.7,58.3h29.2C809.4,599.2,859,457.7,844.4,313.3z M220.3,535c0,0-0.2,2.6-0.4,6.7c-30.4-112.5-89.6-427.6,181.3-490.9C760.6,4.9,803.6,249.2,803.6,249.2S395.3,190.8,220.3,535z"/></g>
</svg>