<?xml version="1.0" encoding="utf-8"?>
<!-- Svg Vector Icons : http://www.onlinewebfonts.com/icon -->
<!DOCTYPE svg PUBLIC "-//W3C//DTD SVG 1.1//EN" "http://www.w3.org/Graphics/SVG/1.1/DTD/svg11.dtd">
<svg version="1.1" xmlns="http://www.w3.org/2000/svg" xmlns:xlink="http://www.w3.org/1999/xlink" x="0px" y="0px" viewBox="0 0 1000 1000" enable-background="new 0 0 1000 1000" xml:space="preserve">
<metadata> Svg Vector Icons : http://www.onlinewebfonts.com/icon </metadata>
<g><path d="M698.4,455.3c5-5,9.4-10,13.8-15c35.7,14.4,156.4,53.2,277.9-25.7c0,0-179,26.9-227.8-49.4c0-0.6,0.6-0.6,0.6-1.3c0,0,0,0-0.6,0.6l-0.6-0.6l-6.9,8.1c-21.3,21.3-58.8,63.2-122.7,92c-57.6,26.3-134.5,37.5-197.8,36.9c-155.8-1.3-222.2-87-259.7-112c-33.8-18.1-36.9-30.7-80.1-10c-57.6,27.5-84.5,97-84.5,97c84.5-34.4,145.2-8.1,160.8,2.5c0.6,0.6,1.9,1.3,2.5,1.9l0,0l0,0c12.5,8.8,25.7,16.9,38.8,24.4c-6.3,35-47.6,53.8-47.6,53.8c58.8-9.4,75.7-22.5,87-35.7c13.1,5.6,26.9,10,40.7,14.4c-4.4,42.6-48.8,74.5-48.8,74.5c60.1-10.6,82-46.9,88.9-64.5c15.6,3.1,31.9,5,48.2,6.9c12.5,34.4-6.9,82-6.9,82c30.7-24.4,45.1-65.1,49.4-80.1c14.4,0,28.8-0.6,42.6-1.9c6.9,15.6,27.5,55.7,57.6,80.1c0,0-20-38.2-11.3-85.7c11.3-1.9,21.9-4.4,32.5-6.9c10,14.4,41.9,49.4,123.3,56.9c0,0-67-21.3-65.1-77c10-4.4,19.4-9.4,28.8-15c16.3,14.4,75.1,55.7,214,46.3C846.1,552.9,723.4,534.1,698.4,455.3L698.4,455.3z"/></g>
</svg>