<?xml version="1.0" encoding="utf-8"?>
<!-- Svg Vector Icons : http://www.onlinewebfonts.com/icon -->
<!DOCTYPE svg PUBLIC "-//W3C//DTD SVG 1.1//EN" "http://www.w3.org/Graphics/SVG/1.1/DTD/svg11.dtd">
<svg version="1.1" xmlns="http://www.w3.org/2000/svg" xmlns:xlink="http://www.w3.org/1999/xlink" x="0px" y="0px" viewBox="0 0 1000 1000" enable-background="new 0 0 1000 1000" xml:space="preserve">
<metadata> Svg Vector Icons : http://www.onlinewebfonts.com/icon </metadata>
<g><g><g><path d="M519.7,987.2c0,0,22.3-19.5-16.8-53.1c0,0-102.4-66.7-164.1-141.1c-16-25.5-63.2-76-67.4-114.3c-4.3-38.3-41.7-119.4-41.7-119.4s-11-53.9,43.5-55.2c51.5,18.5,106.3,148,106.3,148s39.6,29.5,47.2-5.1c0,0,12.1-46.3-4.2-124.4c-17.5-84.1-35.9-151.2-53.5-264.1c-3.2-75.5,69.7-49.2,75.9-20.2c7.6,1.2,81.1,289.5,103.6,282.8c15.2-4.5-85.3-352.9-56.1-369.3c16-34.5,71.1-26.6,76.6-2c6.1,27.8,104.4,394.2,112.3,368.3c9.4-30.7-41.5-287.8-29-302.7c26.8-32.1,71.4-23.3,75.1,20.1c0.9,10.4,34.2,334.5,53.4,315.3c22.5-22.5-0.8-127.3,9.3-204.2c5.9-44.7,56-22.1,56,14.2c0,64.2,15.8,280.2,14.5,294.1c0,0-0.3,129.3-48.9,284.9L797,990L519.7,987.2z"/><g><path d="M226.5,452.3l6.1-53.8c0,0,0.8-3.9-3-4.4c-5.2-0.7-54-6-54-6s-6.6-0.9-2.8,4.1c3.8,5,10,12.9,10,12.9s-2.2,1.7-5.4,4.2c-10.2,7.9-29.9,23.2-37.5,29c0,0-1.8,1.3,0,3.6c1.8,2.3,22,28.3,24.5,31.5c2.5,3.2,4.1,1,4.1,1c7.8-6,26.9-20.8,37.4-29c3.7-2.9,6-4.7,6-4.7s7.6,9.8,10.8,13.9C225.9,458.8,226.5,452.3,226.5,452.3z"/></g><g><path d="M471.3,12.5l-30.1,45c0,0-2.5,3.1,0.7,5.2c4.3,3,45.1,30.2,45.1,30.2s5.5,3.8,4.4-2.3c-1.1-6.2-3-16-3-16s2.7-0.5,6.8-1.2c12.6-2.3,37.2-6.8,46.6-8.5c0,0,2.2-0.3,1.7-3.2c-0.5-2.9-6.4-35.3-7.2-39.3c-0.7-4-3.2-2.8-3.2-2.8c-9.7,1.8-33.5,6.1-46.5,8.5c-4.6,0.9-7.5,1.4-7.5,1.4s-2.2-12.3-3.2-17.3C474.9,7.1,471.3,12.5,471.3,12.5z"/></g><path d="M258.6,466.3c-40.2,0-72.7,32.6-72.7,72.7c0,40.2,32.6,72.7,72.7,72.7c40.2,0,72.7-32.6,72.7-72.7C331.3,498.8,298.7,466.3,258.6,466.3z M258.6,596.6c-31.8,0-57.7-25.8-57.7-57.6c0-31.8,25.8-57.7,57.7-57.7c31.8,0,57.6,25.8,57.6,57.7S290.4,596.6,258.6,596.6z"/><path d="M404,175.2c-40.2,0-72.7,32.6-72.7,72.7s32.6,72.7,72.7,72.7c40.2,0,72.7-32.6,72.7-72.7S444.2,175.2,404,175.2z M404,305.5c-31.8,0-57.7-25.8-57.7-57.7c0-31.8,25.8-57.7,57.7-57.7c31.8,0,57.7,25.8,57.7,57.7C461.7,279.7,435.8,305.5,404,305.5z"/><path d="M532.4,98.6c-40.2,0-72.7,32.6-72.7,72.7s32.6,72.7,72.7,72.7c40.2,0,72.7-32.6,72.7-72.7S572.5,98.6,532.4,98.6z M532.4,228.9c-31.8,0-57.6-25.8-57.6-57.7c0-31.8,25.8-57.7,57.6-57.7c31.8,0,57.7,25.8,57.7,57.7C590,203.1,564.2,228.9,532.4,228.9z"/><path d="M685.1,162.4c-40.2,0-72.7,32.6-72.7,72.7c0,40.2,32.6,72.7,72.7,72.7c40.2,0,72.7-32.6,72.7-72.7C757.8,195,725.3,162.4,685.1,162.4z M685.1,292.8c-31.8,0-57.6-25.8-57.6-57.7c0-31.8,25.8-57.7,57.6-57.7c31.8,0,57.7,25.8,57.7,57.7C742.8,267,717,292.8,685.1,292.8z"/></g></g><g></g><g></g><g></g><g></g><g></g><g></g><g></g><g></g><g></g><g></g><g></g><g></g><g></g><g></g><g></g></g>
</svg>