<?xml version="1.0" encoding="utf-8"?>
<!-- Svg Vector Icons : http://www.onlinewebfonts.com/icon -->
<!DOCTYPE svg PUBLIC "-//W3C//DTD SVG 1.1//EN" "http://www.w3.org/Graphics/SVG/1.1/DTD/svg11.dtd">
<svg version="1.1" xmlns="http://www.w3.org/2000/svg" xmlns:xlink="http://www.w3.org/1999/xlink" x="0px" y="0px" viewBox="0 0 1000 1000" enable-background="new 0 0 1000 1000" xml:space="preserve">
<metadata> Svg Vector Icons : http://www.onlinewebfonts.com/icon </metadata>
<g><g transform="translate(0.000000,511.000000) scale(0.100000,-0.100000)"><path d="M4602.5,4995c-1078.4-145.3-2009.3-851.4-2442.9-1857.1c-190.7-445-279.3-987.6-229.3-1416.7c109-946.7,919.5-2838,2263.5-5269.5c547.2-989.9,674.3-1203.3,744.7-1226c136.2-47.7,165.8-15.9,474.5,524.5c1101.1,1923,2084.2,3959.5,2433.8,5042.5c242.9,753.8,288.3,1173.8,183.9,1725.5c-233.8,1221.5-1216.9,2206.8-2445.2,2445.2C5358.5,5008.6,4822.7,5024.5,4602.5,4995z M5487.9,3489.8c256.5-81.7,449.5-202.1,658.4-410.9c206.6-206.6,326.9-397.3,413.2-658.4c52.2-161.2,59-217.9,59-488.1c0-270.2-6.8-326.9-59-488.1c-86.3-261.1-206.6-451.8-413.2-658.4c-206.6-206.6-397.3-326.9-658.4-413.2c-161.2-52.2-217.9-59-488.1-59c-270.2,0-326.9,6.8-488.1,59c-261.1,86.3-451.8,206.6-658.4,413.2c-206.6,206.6-326.9,397.3-413.2,658.4c-52.2,161.2-59,218-59,488.1c-2.3,267.9,6.8,329.2,56.8,481.3c88.5,270.2,208.9,463.2,413.2,667.5c249.7,249.7,535.8,401.8,865,463.1C4915.8,3580.6,5283.6,3553.3,5487.9,3489.8z"/><path d="M4711.5,3169.6c-208.9-45.4-445-179.3-610.7-345.1c-492.7-494.9-492.7-1291.8,4.5-1789c613-613,1652.8-440.4,2029.7,338.3C6602.7,2338.7,5762.7,3396.7,4711.5,3169.6z M5142.8,2263.8c233.9-97.6,290.6-401.9,109-583.5c-254.3-256.5-672-27.2-606.2,331.5C4686.5,2225.2,4936.2,2352.3,5142.8,2263.8z"/></g></g>
</svg>